<?xml version="1.0" standalone="no"?>
<!DOCTYPE svg PUBLIC "-//W3C//DTD SVG 1.1//EN" "http://www.w3.org/Graphics/SVG/1.1/DTD/svg11.dtd" >
<svg xmlns="http://www.w3.org/2000/svg" xmlns:xlink="http://www.w3.org/1999/xlink" version="1.1">
<metadata></metadata>
<defs>
<font id="chivolight" horiz-adv-x="1259" >
<font-face units-per-em="2048" ascent="1638" descent="-410" />
<missing-glyph horiz-adv-x="499" />
<glyph unicode="&#xfb01;" horiz-adv-x="1230" d="M96 952v95h115v217q0 114 57 170.5t152 56.5q78 0 139 -35v-92q-78 33 -127 33q-53 0 -85 -27.5t-32 -109.5v-213h244v-95h-244v-952h-104v952h-115zM803 1364v111h121v-111h-121zM811 0v1047h104v-1047h-104z" />
<glyph unicode="&#xfb02;" horiz-adv-x="1243" d="M96 952v95h115v217q0 114 57 170.5t152 56.5q78 0 139 -35v-92q-78 33 -127 33q-53 0 -85 -27.5t-32 -109.5v-213h244v-95h-244v-952h-104v952h-115zM815 0v1475h105v-1475h-105z" />
<glyph horiz-adv-x="0" />
<glyph horiz-adv-x="682" />
<glyph unicode=" "  horiz-adv-x="499" />
<glyph unicode="&#x09;" horiz-adv-x="499" />
<glyph unicode="&#xa0;" horiz-adv-x="499" />
<glyph unicode="!" horiz-adv-x="550" d="M160 0v141h133v-141h-133zM162 1405h131q-17 -711 -25 -1116h-84z" />
<glyph unicode="&#x22;" horiz-adv-x="745" d="M131 1104v301h107v-301l-23 -256h-61zM403 1104v301h107v-301l-23 -256h-61z" />
<glyph unicode="#" horiz-adv-x="1316" d="M57 385v119h267l79 356h-266v119h293l100 446h121l-102 -446h340l100 446h121l-102 -446h231v-119h-258l-80 -356h258v-119h-285l-86 -385h-118l86 385h-340l-86 -385h-119l86 385h-240zM442 504h340l80 356h-340z" />
<glyph unicode="$" horiz-adv-x="1118" d="M63 414l3 32h104q-2 -35 -2 -51q0 -254 393 -254q69 0 125.5 7t108 25.5t86 48.5t55 77.5t20.5 110.5q0 64 -29.5 111t-79 75.5t-114 49t-135.5 37t-142 34t-135.5 44t-114 63t-79 96.5t-29.5 139q0 78 34 138.5t94 98t136 57.5t166 23l-20 185h102l-20 -185 q94 -2 170.5 -22.5t136.5 -60t93.5 -105t33.5 -152.5v-24h-102v43q0 113 -100 169t-259 56q-356 0 -356 -225q0 -74 47.5 -124t123 -76t167 -46t183 -46t167 -63.5t123 -109.5t47.5 -174q0 -99 -37 -172.5t-103.5 -117t-150 -64.5t-184.5 -23l20 -174h-102l18 174 q-80 3 -147 17t-126.5 42.5t-100.5 70.5t-65 104.5t-24 140.5z" />
<glyph unicode="%" horiz-adv-x="1431" d="M61 934v225q0 105 67 175.5t179 70.5t179 -70.5t67 -175.5v-225q0 -105 -67 -175.5t-179 -70.5t-179 70.5t-67 175.5zM164 926q0 -62 38.5 -103t104.5 -41q68 0 106 40.5t38 103.5v241q0 63 -38 103.5t-106 40.5q-66 0 -104.5 -41t-38.5 -103v-241zM221 0l854 1405h121 l-852 -1405h-123zM860 244v225q0 105 67 175.5t179 70.5t179 -70.5t67 -175.5v-225q0 -105 -67 -175.5t-179 -70.5t-179 70.5t-67 175.5zM963 236q0 -62 38.5 -103t104.5 -41q68 0 105.5 40.5t37.5 103.5v241q0 63 -37.5 103.5t-105.5 40.5q-66 0 -104.5 -41t-38.5 -103 v-241z" />
<glyph unicode="&#x26;" horiz-adv-x="1355" d="M119 393q0 255 262 330v4q-56 28 -93 53.5t-72 63t-52 88t-17 115.5q0 178 126 278t317 100q70 0 139 -16v-102q-61 20 -139 20q-145 0 -238.5 -71t-93.5 -209q0 -134 98 -206.5t244 -72.5h268l37 334h68v-334h244v-94h-244v-674h-383q-129 0 -235 45.5t-171 136.5 t-65 211zM227 391q0 -139 101.5 -218t261.5 -79h278v580h-278q-77 0 -140.5 -16t-114.5 -48.5t-79.5 -88.5t-28.5 -130z" />
<glyph unicode="'" horiz-adv-x="430" d="M131 1104v301h107v-301l-23 -256h-61z" />
<glyph unicode="(" horiz-adv-x="591" d="M100 543q0 236 84.5 459.5t241.5 402.5h59q-125 -189 -201.5 -411.5t-76.5 -450.5q0 -230 76.5 -453t201.5 -412h-59q-157 179 -241.5 403t-84.5 462z" />
<glyph unicode=")" horiz-adv-x="589" d="M59 -322q125 190 202 413t77 452q0 228 -77 450t-202 412h60q157 -178 241 -402t84 -460q0 -238 -84 -462.5t-241 -402.5h-60z" />
<glyph unicode="*" horiz-adv-x="958" d="M59 1073l41 119l330 -143l-27 356h127l-34 -361l333 140l37 -121l-352 -80l231 -272l-100 -74l-188 309l-185 -301l-102 72l238 270z" />
<glyph unicode="+" d="M104 463v119h465v465h119v-465h465v-119h-465v-463h-119v463h-465z" />
<glyph unicode="," horiz-adv-x="487" d="M141 0v141h133v-118l-61 -230h-70l47 207h-49z" />
<glyph unicode="-" horiz-adv-x="800" d="M141 485v127h518v-127h-518z" />
<glyph unicode="." horiz-adv-x="489" d="M141 0v141h133v-141h-133z" />
<glyph unicode="/" horiz-adv-x="1228" d="M31 -350l1003 1755h121l-1001 -1755h-123z" />
<glyph unicode="0" d="M145 432v541q0 203 127.5 327.5t325.5 124.5t325.5 -124.5t127.5 -327.5v-541q0 -203 -127.5 -327.5t-325.5 -124.5t-325.5 124.5t-127.5 327.5zM256 420q0 -148 97 -245t245 -97t245 97t97 245v565q0 148 -97 245t-245 97t-245 -97t-97 -245v-565z" />
<glyph unicode="1" d="M199 0v98h399v1170h-399v69q2 0 38 4l45 5t44 5t51 7t49.5 8.5t57 10.5t55.5 12.5t62 16.5t61 19h47v-1327h399v-98h-909z" />
<glyph unicode="2" d="M143 0v47q0 87 25 151.5t68.5 109.5t117.5 93l414 269q80 51 133 130t53 185q0 151 -90 246.5t-246 95.5q-148 0 -248 -100t-100 -248q0 -33 2 -49h-110q-2 20 -2 37q0 203 130.5 330.5t327.5 127.5q202 0 324.5 -123.5t122.5 -310.5q0 -78 -20 -144t-57 -116.5 t-77 -86.5t-92 -69l-434 -280q-36 -23 -61.5 -52t-36.5 -50t-17 -47t-6 -32v-16h809v-98h-930z" />
<glyph unicode="3" d="M119 373v35h108v-37q0 -138 99.5 -217.5t261.5 -79.5q160 0 261 79t101 218q0 146 -102.5 222.5t-259.5 76.5h-158v98h148q146 0 244 72.5t98 206.5q0 138 -93.5 209t-238.5 71t-238.5 -74.5t-93.5 -205.5v-29h-109v29q0 117 60 204.5t158.5 130.5t222.5 43 q191 0 316.5 -100t125.5 -278q0 -65 -16.5 -115.5t-51 -88t-71.5 -63t-92 -53.5v-8q118 -34 189 -121t71 -225q0 -120 -65 -211t-171 -136.5t-235 -45.5q-205 0 -337 107.5t-132 285.5z" />
<glyph unicode="4" d="M102 383v98q70 85 234.5 398t249.5 546h114q-85 -259 -234.5 -548.5t-246.5 -395.5h592v527q58 119 76 166h39v-693h168v-98h-168v-383h-115v383h-709z" />
<glyph unicode="5" d="M145 432h111q0 -150 94 -252t248 -102q155 0 248.5 105t93.5 257q0 154 -100 258.5t-242 104.5q-96 0 -181.5 -50t-129.5 -132l-99 14l58 770h743v-111h-641l-39 -512q130 121 303 121q194 0 316.5 -129t122.5 -334q0 -94 -32 -177.5t-89.5 -146.5t-143.5 -99.5 t-188 -36.5q-138 0 -242 61t-157.5 163t-53.5 228z" />
<glyph unicode="6" d="M162 432v541q0 204 123.5 328t320.5 124q196 0 316 -123.5t120 -328.5h-106v12q0 149 -91.5 245.5t-238.5 96.5t-240.5 -96.5t-93.5 -245.5v-287q58 84 154.5 132.5t204.5 48.5q186 0 311 -126.5t125 -320.5q0 -203 -127.5 -327.5t-325.5 -124.5t-325 124.5t-127 327.5z M272 420q0 -148 97 -245t245 -97t245 97t97 245v18q0 148 -97 245t-245 97t-245 -97t-97 -245v-18z" />
<glyph unicode="7" d="M150 1294v111h964v-62q-80 -89 -155.5 -189.5t-153 -230.5t-134.5 -260t-93.5 -280t-36.5 -289q0 -41 4 -94h-127q0 192 47.5 385t129 359.5t166.5 297.5t185 252h-796z" />
<glyph unicode="8" d="M137 375q0 135 67 221t183 125v8q-99 49 -151 122t-52 198q0 175 114.5 275.5t305.5 100.5t305.5 -100.5t114.5 -275.5q0 -124 -53 -197.5t-152 -122.5v-8q123 -48 187.5 -128t64.5 -218q0 -183 -120.5 -289t-346.5 -106q-213 0 -340 102.5t-127 292.5zM248 375 q0 -140 88.5 -218.5t267.5 -78.5q177 0 267 78.5t90 218.5q0 137 -95.5 217t-261.5 80t-261 -80.5t-95 -216.5zM295 1049q0 -129 87.5 -204t219.5 -75q133 0 221 73.5t88 205.5q0 133 -83 205.5t-226 72.5q-142 0 -224.5 -73.5t-82.5 -204.5z" />
<glyph unicode="9" d="M129 973q0 203 127.5 327.5t325.5 124.5t325 -124.5t127 -327.5v-541q0 -203 -125.5 -327.5t-322.5 -124.5q-196 0 -318.5 124t-122.5 328h107v-12q0 -149 93.5 -245.5t240.5 -96.5t242.5 97t95.5 245v289q-58 -85 -155 -134t-204 -49q-186 0 -311 126.5t-125 320.5z M240 967q0 -148 97 -245t245 -97t245 97t97 245v18q0 148 -97 245t-245 97t-245 -97t-97 -245v-18z" />
<glyph unicode=":" horiz-adv-x="489" d="M141 0v141h133v-141h-133zM141 905v142h133v-142h-133z" />
<glyph unicode=";" horiz-adv-x="489" d="M141 0v141h133v-118l-61 -230h-70l47 207h-49zM141 905v142h133v-142h-133z" />
<glyph unicode="&#x3c;" d="M90 430v180l1043 404v-127l-947 -367l947 -366v-127z" />
<glyph unicode="=" d="M113 246v119h1024v-119h-1024zM113 672v119h1024v-119h-1024z" />
<glyph unicode="&#x3e;" d="M127 27v127l946 366l-946 367v127l1042 -404v-180z" />
<glyph unicode="?" horiz-adv-x="1028" d="M53 1020q0 18 2.5 42.5t13 65.5t27.5 79t49.5 79t75 71.5t108 50t144.5 19.5t143.5 -19.5t104.5 -48t69.5 -69t44 -75t22.5 -73t9.5 -56t1.5 -31.5q0 -74 -18 -134t-46.5 -100t-63 -73t-68.5 -61.5t-62.5 -57.5t-46.5 -68.5t-18 -87.5v-133h-111v160q0 51 18 93t46.5 73 t63 60.5t69 60.5t63 66.5t46.5 86t18 111.5q0 30 -5.5 61.5t-23.5 71.5t-47.5 70.5t-83 51.5t-123.5 21q-81 0 -141.5 -26.5t-91.5 -63t-50 -84.5t-23.5 -80t-4.5 -61l6 -60h-111q-6 19 -6 68zM422 0v141h133v-141h-133z" />
<glyph unicode="@" horiz-adv-x="1812" d="M78 537q0 190 44.5 342t122 253t186.5 168.5t232 97t265 29.5q140 0 259 -27t219.5 -87t170.5 -149t109.5 -218.5t39.5 -290.5q0 -131 -23 -238t-59.5 -174t-84.5 -113t-95 -64.5t-94 -18.5q-107 0 -145.5 47.5t-38.5 141.5q-119 -191 -371 -191q-49 0 -92.5 7.5 t-85.5 27t-72 49.5t-48.5 78.5t-18.5 111.5q0 53 12.5 96t39.5 75t60 55.5t83 39t99 25.5t118.5 15t130.5 6.5t145 1.5v125q0 124 -60 172.5t-204 48.5q-130 0 -208.5 -49t-78.5 -152v-30h-98q-5 40 -5 49q0 126 110.5 198t279.5 72q185 0 274.5 -71t89.5 -220v-561 q0 -43 18.5 -61.5t61.5 -18.5q109 0 180.5 126t71.5 396q0 173 -50 302t-143.5 208t-218 117.5t-280.5 38.5q-350 0 -545 -199t-195 -589q0 -373 165 -558.5t505 -185.5q74 0 179.5 19.5t158.5 46.5v-115q-61 -23 -164 -39t-174 -16q-372 0 -575 209t-203 641zM602 319 q0 -96 58 -141t176 -45q66 0 127 21t111.5 61.5t81 109t30.5 154.5v68q-87 0 -145.5 -1.5t-125.5 -6.5t-109.5 -14.5t-85 -26.5t-66 -41t-38 -58.5t-14.5 -79.5z" />
<glyph unicode="A" horiz-adv-x="1335" d="M8 0l582 1405h102l582 -1405h-121l-145 348h-742l-143 -348h-115zM307 449h660l-326 804h-8z" />
<glyph unicode="B" horiz-adv-x="1333" d="M188 0v1405h562q152 0 260 -101t108 -243q0 -75 -23 -135t-61 -97.5t-78.5 -60t-85.5 -33.5v-12q28 -4 58.5 -13.5t72 -35t73.5 -61.5t54.5 -98t22.5 -140q0 -155 -114 -265t-275 -110h-574zM299 98h451q121 0 205.5 82t84.5 201q0 120 -85 203.5t-205 83.5h-451v-570z M299 766h430q116 0 196.5 77.5t80.5 192.5t-80.5 193t-196.5 78h-430v-541z" />
<glyph unicode="C" horiz-adv-x="1357" d="M127 676v53q0 165 26.5 288.5t72 200.5t114.5 124t144 65t171 18q521 0 521 -536h-109q0 102 -22.5 180t-60 126.5t-92 78.5t-111.5 41.5t-126 11.5q-76 0 -136 -14.5t-114 -53.5t-89.5 -102t-56.5 -165t-21 -238v-103q0 -136 21 -238t56.5 -165t89.5 -102t114 -53.5 t136 -14.5q412 0 412 436h109q0 -121 -28.5 -215t-76.5 -153t-116.5 -97.5t-141.5 -53.5t-158 -15q-96 0 -171 18t-144 65t-114.5 124t-72 200.5t-26.5 288.5z" />
<glyph unicode="D" horiz-adv-x="1382" d="M188 0v1405h451q95 0 173 -19t148.5 -66.5t118.5 -123t76.5 -194t28.5 -273.5v-51q0 -678 -545 -678h-451zM299 98h340q76 0 137.5 15t118.5 54t95 101.5t60.5 161.5t22.5 229v89q0 559 -434 559h-340v-1209z" />
<glyph unicode="E" horiz-adv-x="1214" d="M188 0v1405h869l-21 -98h-737v-541h653v-98h-653v-570h756l22 -98h-889z" />
<glyph unicode="F" horiz-adv-x="1126" d="M188 0v1405h832l-19 -98h-702v-541h600v-98h-600v-668h-111z" />
<glyph unicode="G" horiz-adv-x="1386" d="M127 676v53q0 165 26.5 288.5t72 200.5t114.5 124t144 65t171 18q84 0 156 -13.5t141 -49t117 -91t77.5 -145.5t29.5 -206h-109q0 95 -23 167.5t-61 117t-93 73t-111.5 39t-123.5 10.5q-76 0 -136 -14.5t-114 -53.5t-89.5 -102t-56.5 -165t-21 -238v-103q0 -136 21 -238 t56.5 -165t89.5 -102t114 -53.5t136 -14.5q418 0 418 436v107h-475v96h578v-473q0 -64 3 -125t6 -90l3 -29h-76q-17 61 -33 188q-61 -108 -172.5 -158t-251.5 -50q-96 0 -171 18t-144 65t-114.5 124t-72 200.5t-26.5 288.5z" />
<glyph unicode="H" horiz-adv-x="1419" d="M188 0v1405h111v-639h760v639h110v-1405h-110v668h-760v-668h-111z" />
<glyph unicode="I" horiz-adv-x="745" d="M109 0v100h161v1205h-161v100h434v-100h-162v-1205h162v-100h-434z" />
<glyph unicode="J" horiz-adv-x="1077" d="M59 340v39h103v-27q0 -139 78.5 -206.5t205.5 -67.5t206 68t79 206v1053h111v-1065q0 -172 -112 -266t-284 -94q-171 0 -279 93.5t-108 266.5z" />
<glyph unicode="K" horiz-adv-x="1275" d="M188 0v1405h111v-834l743 834h132l-547 -612l563 -793h-139l-500 709l-252 -283v-426h-111z" />
<glyph unicode="L" horiz-adv-x="1097" d="M188 0v1405h111v-1307h696l25 -98h-832z" />
<glyph unicode="M" horiz-adv-x="1921" d="M188 0v1405h177l548 -1264h2l555 1264h175v-1405h-111v1280h-10l-563 -1280h-105l-559 1280h-10v-1280h-99z" />
<glyph unicode="N" horiz-adv-x="1421" d="M188 0v1405h95l782 -1194h6v1194h98v-1405h-98l-778 1194h-6v-1194h-99z" />
<glyph unicode="O" horiz-adv-x="1413" d="M125 676v53q0 164 28.5 288t76 200.5t119 124t148.5 65.5t173 18t173 -18t148 -65.5t118.5 -124t76 -200.5t28.5 -288v-53q0 -164 -28.5 -288t-76 -200.5t-118.5 -124t-148 -65.5t-173 -18t-173 18t-148.5 65.5t-119 124t-76 200.5t-28.5 288zM236 651q0 -136 22.5 -238 t60.5 -165t95 -102t118 -53.5t138 -14.5t138 14.5t118 53.5t95 102t60.5 165t22.5 238v103q0 136 -22.5 238t-60.5 165t-95 102t-118 53.5t-138 14.5t-138 -14.5t-118 -53.5t-95 -102t-60.5 -165t-22.5 -238v-103z" />
<glyph unicode="P" horiz-adv-x="1277" d="M188 0v1405h576q158 0 270.5 -112.5t112.5 -270.5t-112.5 -270.5t-270.5 -112.5h-465v-639h-111zM299 735h451q120 0 205 83.5t85 203.5t-85 202.5t-205 82.5h-451v-572z" />
<glyph unicode="Q" horiz-adv-x="1413" d="M125 676v53q0 164 28.5 288t76 200.5t119 124t148.5 65.5t173 18t173 -18t148 -65.5t118.5 -124t76 -200.5t28.5 -288v-53q0 -154 -25 -272t-67 -194.5t-105.5 -126.5t-133 -72.5t-156.5 -28.5q13 -69 64.5 -117.5t156.5 -48.5q43 0 101.5 14.5t95.5 28.5t37 16v-100 q-12 -6 -32.5 -15.5t-81.5 -25t-118 -15.5q-289 0 -325 263q-89 4 -160.5 25t-136.5 70t-108.5 125.5t-69 196.5t-25.5 277zM236 651q0 -136 22.5 -238t60.5 -165t95 -102t118 -53.5t138 -14.5t138 14.5t118 53.5t95 102t60.5 165t22.5 238v103q0 136 -22.5 238t-60.5 165 t-95 102t-118 53.5t-138 14.5t-138 -14.5t-118 -53.5t-95 -102t-60.5 -165t-22.5 -238v-103z" />
<glyph unicode="R" horiz-adv-x="1372" d="M188 0v1405h572q100 0 188.5 -42t144.5 -123t56 -183q0 -114 -73 -213t-179 -119v-10q5 -1 13 -3t31.5 -13t44.5 -26.5t47 -47.5t44.5 -72t31.5 -102.5t13 -137.5q0 -46 3 -83t6 -62t11 -45t13 -31t17 -20.5t17 -12.5t19.5 -9.5t18.5 -8.5v-39q-22 -8 -51 -8 q-28 0 -52.5 10t-50.5 36t-41.5 82.5t-15.5 137.5q0 108 -22 188t-51.5 120.5t-70 65t-67 29.5t-53.5 5h-453v-668h-111zM299 766h467q114 0 194 79t80 193t-80 191.5t-194 77.5h-467v-541z" />
<glyph unicode="S" horiz-adv-x="1284" d="M106 383l3 37h104l-2 -55q0 -77 30.5 -134t85.5 -89.5t124 -48t155 -15.5q398 0 398 301q0 69 -29.5 120.5t-79.5 83.5t-114.5 55.5t-136.5 42t-143.5 38t-136 48.5t-114.5 67.5t-79.5 101.5t-29.5 145q0 88 37.5 155.5t102.5 108t147 60.5t178 20q79 0 147 -12.5 t127 -40.5t101 -70t66 -104.5t24 -140.5v-27h-102v45q0 122 -101.5 187t-259.5 65q-162 0 -260 -61t-98 -191q0 -63 29.5 -110t79.5 -75.5t114.5 -50.5t136 -40t143 -38t136 -50t114.5 -70.5t79.5 -105.5t29.5 -150q0 -108 -39 -188.5t-109.5 -126.5t-157.5 -68t-192 -22 q-109 0 -197.5 21t-160 66.5t-111 125.5t-39.5 190z" />
<glyph unicode="T" horiz-adv-x="1183" d="M51 1307v98h1057v-98h-475v-1307h-107v1307h-475z" />
<glyph unicode="U" horiz-adv-x="1392" d="M176 451v954h111v-950q0 -173 99 -275t278 -102t278.5 103.5t99.5 273.5v950h111v-954q0 -214 -134 -342.5t-355 -128.5t-354.5 128.5t-133.5 342.5z" />
<glyph unicode="V" horiz-adv-x="1234" d="M10 1405h121l461 -1229h10l461 1229h108l-530 -1405h-98z" />
<glyph unicode="W" horiz-adv-x="1875" d="M29 1405h118l342 -1186h9l342 1186h102l342 -1186h8l342 1186h103l-410 -1405h-94l-346 1190h-8l-347 -1190h-94z" />
<glyph unicode="X" horiz-adv-x="1292" d="M18 0l523 735l-475 670h133l407 -582h4l414 582h121l-477 -670l522 -735h-133l-455 645h-4l-459 -645h-121z" />
<glyph unicode="Y" horiz-adv-x="1171" d="M-10 1405h129l432 -748h6l438 748h113l-504 -860v-545h-110v545z" />
<glyph unicode="Z" horiz-adv-x="1220" d="M66 0v51l845 1256h-796v98h964v-49l-848 -1258h865v-98h-1030z" />
<glyph unicode="[" horiz-adv-x="600" d="M174 -330v1735h289v-78h-180v-1579h180v-78h-289z" />
<glyph unicode="\" horiz-adv-x="1228" d="M31 1405h123l802 -1405h-122z" />
<glyph unicode="]" horiz-adv-x="600" d="M80 -252h180v1579h-180v78h289v-1735h-289v78z" />
<glyph unicode="^" horiz-adv-x="1220" d="M100 0l404 1047h180l403 -1047h-126l-367 950l-367 -950h-127z" />
<glyph unicode="_" horiz-adv-x="1421" d="M199 -131h1024v-119h-1024v119z" />
<glyph unicode="`" horiz-adv-x="681" d="M139 1468v7h133l197 -297h-102z" />
<glyph unicode="a" horiz-adv-x="1198" d="M98 272q0 50 11.5 91.5t30.5 73.5t51 57t67.5 42.5t85.5 30.5t98 20.5t112.5 11.5t122.5 5.5t134 1.5v131q0 132 -62 184t-210 52q-135 0 -217 -51.5t-82 -161.5v-33h-101q-4 32 -4 53q0 134 114.5 210.5t289.5 76.5q191 0 283.5 -75.5t92.5 -233.5v-617q0 -67 56 -67 q47 0 102 32v-88q-56 -38 -131 -38q-50 0 -80 28t-40.5 70.5t-10.5 103.5q-121 -202 -383 -202q-53 0 -99 8t-89.5 28.5t-74 52.5t-49 84t-18.5 119zM203 270q0 -102 58 -149t188 -47q68 0 131 22.5t115.5 65.5t84 115.5t31.5 164.5v70q-91 0 -151 -1.5t-130 -7t-114 -15.5 t-88.5 -27.5t-69 -43t-40 -62.5t-15.5 -85z" />
<glyph unicode="b" horiz-adv-x="1193" d="M170 0v1475h104v-574q52 78 139 122t195 44q179 0 297.5 -136t118.5 -376v-23q0 -142 -32.5 -250t-90 -172.5t-131.5 -97t-162 -32.5q-240 0 -356 194l-39 -174h-43zM272 526q0 -125 25.5 -215.5t72 -141t102.5 -73t126 -22.5t126 24t101 75t70 141t25 214v23 q0 209 -90 315.5t-232 106.5q-143 0 -234.5 -106t-91.5 -316v-25z" />
<glyph unicode="c" horiz-adv-x="1114" d="M104 508v31q0 249 120 388.5t317 139.5q178 0 293.5 -113t115.5 -311h-102q0 160 -87 245t-220 85q-148 0 -240 -108t-92 -314v-55q0 -205 93 -313.5t241 -108.5q133 0 219 83.5t86 245.5h102q0 -198 -114.5 -310.5t-292.5 -112.5q-198 0 -318.5 139.5t-120.5 388.5z" />
<glyph unicode="d" horiz-adv-x="1193" d="M106 532v23q0 240 118.5 376t297.5 136q108 0 195 -44t139 -122v574h105v-1475h-70l-23 158q-115 -178 -346 -178q-88 0 -162 32.5t-131.5 97t-90 172.5t-32.5 250zM211 528q0 -124 24.5 -214t69.5 -141t101 -75t126 -24t126 22.5t102.5 73t72 141t25.5 215.5v25 q0 210 -91.5 316t-234.5 106q-142 0 -231.5 -106t-89.5 -316v-23z" />
<glyph unicode="e" horiz-adv-x="1138" d="M104 508v31q0 249 120 388.5t317 139.5q178 0 293.5 -113t115.5 -311v-131h-741v-16q0 -205 93 -313.5t241 -108.5q131 0 218 80t87 233h102q0 -190 -115.5 -298.5t-291.5 -108.5q-198 0 -318.5 139.5t-120.5 388.5zM211 606h637v37q0 160 -87 245t-220 85 q-137 0 -227.5 -94.5t-102.5 -272.5z" />
<glyph unicode="f" horiz-adv-x="692" d="M96 952v95h115v217q0 114 57 170.5t152 56.5q78 0 139 -35v-92q-78 33 -127 33q-53 0 -85 -27.5t-32 -109.5v-213h244v-95h-244v-952h-104v952h-115z" />
<glyph unicode="g" horiz-adv-x="1163" d="M74 -125q0 76 41 142.5t110 95.5q-92 56 -92 163q0 71 44 124t122 83q-65 47 -102 113t-37 141q0 146 100 238t299 92q135 0 227 -45q76 21 125.5 76t59.5 137h98q0 -91 -56.5 -168t-146.5 -90l-2 -8q94 -82 94 -232q0 -144 -100 -235.5t-299 -91.5h-168 q-66 0 -109.5 -37.5t-43.5 -100.5t43 -99t110 -36h436q106 0 174 -69.5t68 -173.5q0 -118 -83.5 -198.5t-209.5 -80.5h-444q-109 0 -183.5 78.5t-74.5 181.5zM176 -127q0 -67 48 -115.5t116 -48.5h442q74 0 128.5 52.5t54.5 125.5q0 60 -43 105t-103 45h-479 q-68 0 -116 -48.5t-48 -115.5zM264 737q0 -101 78.5 -168t216.5 -67t216.5 67t78.5 168t-78.5 168.5t-216.5 67.5t-216.5 -67.5t-78.5 -168.5z" />
<glyph unicode="h" horiz-adv-x="1214" d="M170 0v1475h104v-576q52 80 144 124t188 44q83 0 152.5 -23.5t123 -70.5t83.5 -123.5t30 -175.5v-674h-104v643q0 166 -76.5 248t-218.5 82q-138 0 -230 -94.5t-92 -235.5v-643h-104z" />
<glyph unicode="i" horiz-adv-x="532" d="M166 1364v111h121v-111h-121zM174 0v1047h105v-1047h-105z" />
<glyph unicode="j" horiz-adv-x="532" d="M-70 -254q78 -33 127 -33q53 0 85 27.5t32 109.5v1197h105v-1201q0 -114 -57 -170.5t-152 -56.5q-79 0 -140 35v92zM166 1364v111h121v-111h-121z" />
<glyph unicode="k" horiz-adv-x="1095" d="M170 0v1475h104v-1094l594 666h129l-440 -494l475 -553h-135l-410 475l-213 -215v-260h-104z" />
<glyph unicode="l" horiz-adv-x="548" d="M178 0v1475h105v-1475h-105z" />
<glyph unicode="m" horiz-adv-x="1775" d="M170 0v1047h70l24 -156q45 83 124.5 129.5t172.5 46.5q105 0 188.5 -45t127.5 -133q45 76 129 127t194 51q75 0 137.5 -23.5t111 -70.5t76 -123.5t27.5 -175.5v-674h-104v643q0 330 -256 330q-122 0 -200.5 -94t-78.5 -236v-643h-104v643q0 330 -256 330 q-122 0 -200.5 -94t-78.5 -236v-643h-104z" />
<glyph unicode="n" horiz-adv-x="1214" d="M170 0v1047h70l22 -156q53 82 146.5 129t197.5 47q172 0 279.5 -99t107.5 -294v-674h-102v643q0 166 -76.5 248t-218.5 82q-138 0 -230 -94.5t-92 -235.5v-643h-104z" />
<glyph unicode="o" horiz-adv-x="1175" d="M106 508v31q0 248 122.5 388t320.5 140t320 -140t122 -388v-31q0 -248 -122 -388t-320 -140t-320.5 140t-122.5 388zM211 496q0 -205 94.5 -313.5t243.5 -108.5t243.5 108.5t94.5 313.5v55q0 205 -94.5 313.5t-243.5 108.5t-243.5 -108.5t-94.5 -313.5v-55z" />
<glyph unicode="p" horiz-adv-x="1193" d="M170 -371v1418h70l22 -158q115 178 346 178q88 0 162 -32.5t131.5 -97.5t90 -173t32.5 -250v-22q0 -240 -118.5 -376t-297.5 -136q-109 0 -195.5 43.5t-138.5 121.5v-516h-104zM272 496q0 -210 91.5 -316t234.5 -106q142 0 232 106.5t90 315.5v22q0 124 -25 214 t-70 141.5t-101 75.5t-126 24t-126 -23t-102.5 -73t-72 -141t-25.5 -216v-24z" />
<glyph unicode="q" horiz-adv-x="1193" d="M106 492v22q0 142 32.5 250t90 173t131.5 97.5t162 32.5q241 0 357 -195l39 175h43v-1416h-105v514q-52 -78 -138.5 -121.5t-195.5 -43.5q-179 0 -297.5 136t-118.5 376zM211 496q0 -210 89.5 -316t231.5 -106q143 0 234.5 106t91.5 316v24q0 125 -25.5 216t-72 141 t-102.5 73t-126 23t-126 -24t-101 -75.5t-69.5 -141.5t-24.5 -214v-22z" />
<glyph unicode="r" horiz-adv-x="1003" d="M170 0v1047h70l22 -156q3 7 9 19t30.5 42.5t55 53.5t84.5 42t118 19q162 0 249 -99.5t87 -246.5l-4 -49h-96v33q0 45 -12 88.5t-39 85.5t-80 68t-125 26q-58 0 -105 -21.5t-76 -54.5t-48.5 -75.5t-27.5 -81.5t-8 -76v-664h-104z" />
<glyph unicode="s" horiz-adv-x="1093" d="M92 270l2 52h103q-2 -10 -2 -29q0 -105 90.5 -162t249.5 -57q141 0 218.5 56.5t77.5 148.5q0 65 -39 107.5t-101.5 63.5t-138 35.5t-151 32.5t-138 45t-101.5 82t-39 135q0 126 102 206.5t303 80.5q100 0 177 -26.5t120 -69.5t64.5 -90.5t21.5 -96.5l-2 -28h-102v26 q0 19 -3.5 38t-21 48.5t-47 51t-88 37.5t-137.5 16q-77 0 -133 -15.5t-84 -36t-44 -49.5t-19 -48t-3 -40q0 -50 30.5 -85.5t80.5 -54.5t113.5 -35.5t130 -28t130 -33t113.5 -49.5t80.5 -79t30.5 -120q0 -87 -32 -150t-91 -99t-134.5 -53t-170.5 -17q-93 0 -167.5 20 t-119.5 51t-75.5 71t-42 76.5t-11.5 71.5z" />
<glyph unicode="t" horiz-adv-x="708" d="M88 952v95h115l37 333h67v-333h244v-95h-244v-741q0 -82 32 -109.5t85 -27.5q52 0 127 32v-92q-59 -34 -139 -34q-95 0 -152 56.5t-57 170.5v745h-115z" />
<glyph unicode="u" horiz-adv-x="1265" d="M160 373v674h104v-644q0 -166 76.5 -247.5t218.5 -81.5q138 0 230 94t92 235v644h104v-906q0 -67 55 -67q48 0 103 32v-88q-56 -38 -131 -38q-47 0 -78 28t-42 65.5t-11 82.5q-54 -83 -144 -129.5t-194 -46.5q-172 0 -277.5 99t-105.5 294z" />
<glyph unicode="v" horiz-adv-x="1048" d="M25 1047h112l359 -895h4l360 895h103l-424 -1047h-93z" />
<glyph unicode="w" horiz-adv-x="1660" d="M41 1047h109l296 -857h7l297 857h120l297 -857h7l296 857h101l-365 -1047h-82l-317 913h-4l-318 -913h-82z" />
<glyph unicode="x" horiz-adv-x="1062" d="M37 0l389 537l-373 510h131l303 -426h2l308 426h118l-370 -510l389 -537h-129l-322 453h-2l-325 -453h-119z" />
<glyph unicode="y" horiz-adv-x="1048" d="M25 1047h112l357 -891h8l358 891h103l-414 -1020q-10 -24 -28 -70.5t-27.5 -70t-26 -62t-29 -58.5t-30.5 -48t-36 -42.5t-41 -29.5t-49.5 -21t-56.5 -6q-64 0 -129 29v94q70 -29 111 -29q32 0 59 12.5t45 30.5t35 46t26.5 50t21.5 51q3 9 5 13l41 100z" />
<glyph unicode="z" horiz-adv-x="948" d="M74 0v49l567 903h-532v95h686v-50l-570 -903h586v-94h-737z" />
<glyph unicode="{" horiz-adv-x="645" d="M82 459v162q62 -2 110 28t48 88v439q0 62 25 108.5t66 71.5t86 37t93 12v-78q-24 0 -49.5 -6t-51.5 -19t-43 -38t-18 -58l-14 -446q-3 -109 -38 -160t-132 -51v-19q97 0 132 -51t38 -160l14 -446q1 -33 18 -58t43 -38t51.5 -19t49.5 -6v-78q-48 0 -93 12t-86 37t-66 72 t-25 109v438q0 59 -48 89t-110 28z" />
<glyph unicode="|" horiz-adv-x="507" d="M172 -408v1883h107v-1883h-107z" />
<glyph unicode="}" horiz-adv-x="645" d="M82 -248q24 0 49.5 6t51.5 19t43 38t18 58l14 446q3 109 38 160t132 51v19q-97 0 -132 51t-38 160l-14 446q-1 33 -18 58t-43 38t-51.5 19t-49.5 6v78q48 0 93 -12t86 -37t66 -71.5t25 -108.5v-439q0 -58 48 -88t110 -28v-162q-62 2 -110 -28t-48 -89v-438 q0 -62 -25 -109t-66 -72t-86 -37t-93 -12v78z" />
<glyph unicode="~" horiz-adv-x="1411" d="M131 459v123q6 6 16.5 17t45 38.5t71 48.5t91.5 38t110 17q58 0 124 -21t117 -46.5t118.5 -46.5t127.5 -21q55 0 109.5 16.5t93 40t69.5 47t46 40.5l16 16v-123q-6 -7 -16.5 -17.5t-45 -38t-71 -48.5t-91.5 -38.5t-110 -17.5q-58 0 -124 21t-117 46.5t-118.5 46.5 t-127.5 21q-55 0 -109.5 -16.5t-93 -39.5t-69.5 -46.5t-47 -39.5z" />
<glyph unicode="&#xa1;" horiz-adv-x="520" d="M141 -360l27 1116h86l22 -1116h-135zM143 903v141h133v-141h-133z" />
<glyph unicode="&#xa2;" horiz-adv-x="1079" d="M98 688v31q0 240 110.5 378.5t297.5 149.5l-19 172h103l-21 -174q165 -11 270 -122.5t105 -299.5h-102q0 160 -87 245t-220 85q-148 0 -240 -108t-92 -314v-55q0 -205 93 -313.5t241 -108.5q133 0 219 84t86 246h102q0 -189 -105 -301t-270 -121l21 -174h-103l19 174 q-186 11 -297 148.5t-111 377.5z" />
<glyph unicode="&#xa3;" horiz-adv-x="1222" d="M59 643v98h285v332q0 172 111.5 266.5t283.5 94.5q171 0 279 -94t108 -267v-39h-102v27q0 139 -79 206.5t-206 67.5t-205.5 -68t-78.5 -206v-320h467v-98h-467v-76l-27 -469h664v-98h-955v98h207v545h-285z" />
<glyph unicode="&#xa4;" horiz-adv-x="1277" d="M127 262l113 111q-109 123 -109 315q0 193 109 316l-113 110l86 86l115 -115q129 111 311 111t311 -111l115 115l86 -86l-113 -110q109 -123 109 -316q0 -192 -109 -315l113 -111l-86 -86l-115 115q-129 -111 -311 -111t-311 111l-115 -115zM229 688q0 -168 121.5 -288.5 t288.5 -120.5q166 0 287 120.5t121 288.5t-121 288t-287 120q-167 0 -288.5 -120t-121.5 -288z" />
<glyph unicode="&#xa5;" horiz-adv-x="1298" d="M53 1405h129l432 -748h7l438 748h112l-305 -518h252v-101h-309l-107 -182h416v-96h-450v-508h-111v508h-451v96h416l-106 182h-310v101h250z" />
<glyph unicode="&#xa6;" horiz-adv-x="550" d="M184 0v537h133v-537h-133zM184 868v537h133v-537h-133z" />
<glyph unicode="&#xa7;" horiz-adv-x="1052" d="M78 549q0 101 49 167t160 126q-87 53 -136 119t-49 157q0 135 102.5 221t303.5 86q100 0 177 -26.5t120 -69t64.5 -90t21.5 -96.5l-2 -29h-103v27q0 19 -3.5 38t-21 48.5t-47 50.5t-88 37t-137.5 16q-77 0 -133 -17t-83.5 -39.5t-43.5 -55t-19 -53t-3 -44.5 q0 -60 39 -110.5t101.5 -87t138 -70t151 -68t138 -73t101.5 -94t39 -121.5q0 -102 -49 -168t-161 -125q88 -52 137 -118.5t49 -158.5q0 -135 -102.5 -221t-303.5 -86q-100 0 -177 26.5t-120 69.5t-64.5 90.5t-21.5 96.5l2 28h103v-26q0 -19 3.5 -38t21 -48.5t47 -51 t88 -37.5t137.5 -16q77 0 133 17t83.5 39.5t43.5 55t19 53t3 44.5q0 60 -39 111t-101.5 87t-138 69.5t-151 68.5t-138 73.5t-101.5 94t-39 121.5zM182 573q0 -42 20.5 -78.5t51 -62t80 -53t92.5 -45.5t106 -45t103 -47q176 83 176 231q0 41 -20.5 77.5t-51 62t-80.5 53 t-93.5 45.5t-106 45t-103.5 47q-174 -82 -174 -230z" />
<glyph unicode="&#xa8;" horiz-adv-x="901" d="M166 1333v142h133v-142h-133zM526 1333v142h133v-142h-133z" />
<glyph unicode="&#xa9;" horiz-adv-x="1597" d="M74 705q0 147 57.5 280.5t154.5 229.5t231 153t282 57q196 0 363 -96t264.5 -262t97.5 -362q0 -198 -97.5 -365t-264 -263.5t-363.5 -96.5t-364 96.5t-264 263.5t-97 365zM127 705q0 -137 53 -262t143.5 -214.5t214.5 -142.5t261 -53q136 0 260 53t214 142.5t143.5 214.5 t53.5 262q0 136 -53.5 259.5t-143.5 213t-214 142t-260 52.5q-109 0 -212 -33.5t-185.5 -95.5t-144.5 -143.5t-96 -183.5t-34 -211zM473 602v203q0 171 93 254.5t241 83.5q144 0 235 -84t91 -252h-74v14q0 121 -71 184.5t-181 63.5q-111 0 -181.5 -63t-70.5 -185v-233 q0 -124 70.5 -187t181.5 -63q115 0 184.5 67t69.5 193h72q0 -168 -90.5 -251t-235.5 -83q-71 0 -130 19t-105.5 58.5t-72.5 106t-26 154.5z" />
<glyph unicode="&#xaa;" horiz-adv-x="849" d="M113 948q0 54 21.5 92.5t55.5 60.5t92 34.5t114.5 16t138.5 3.5v68q0 71 -35.5 100t-116.5 29q-75 0 -120.5 -28.5t-45.5 -88.5v-18h-78q-4 8 -4 30q0 85 70 132.5t178 47.5q119 0 176 -47t57 -145v-365q0 -30 23 -30q25 0 72 28v-75q-40 -29 -88 -29q-78 0 -88 98 q-76 -98 -218 -98q-204 0 -204 184zM195 946q0 -55 32 -80.5t103 -25.5q83 0 144 53.5t61 155.5v30q-59 0 -98 -1.5t-81.5 -5.5t-68.5 -13t-49 -23.5t-33 -37t-10 -52.5z" />
<glyph unicode="&#xab;" horiz-adv-x="942" d="M100 690l252 357h84l-198 -357l198 -356h-84zM473 690l254 357h84l-199 -357l199 -356h-84z" />
<glyph unicode="&#xac;" horiz-adv-x="1263" d="M76 770v121h1048v-514h-118v393h-930z" />
<glyph unicode="&#xad;" horiz-adv-x="800" d="M141 485v127h518v-127h-518z" />
<glyph unicode="&#xae;" horiz-adv-x="1597" d="M74 705q0 147 57.5 280.5t154.5 229.5t231 153t282 57q196 0 363 -96t264.5 -262t97.5 -362q0 -198 -97.5 -365t-264 -263.5t-363.5 -96.5t-364 96.5t-264 263.5t-97 365zM127 705q0 -137 53 -262t143.5 -214.5t214.5 -142.5t261 -53q136 0 260 53t214 142.5t143.5 214.5 t53.5 262q0 136 -53.5 259.5t-143.5 213t-214 142t-260 52.5q-109 0 -212 -33.5t-185.5 -95.5t-144.5 -143.5t-96 -183.5t-34 -211zM520 276v844h346q96 0 166 -59.5t70 -153.5q0 -69 -38.5 -121.5t-90.5 -74.5v-9q114 -47 114 -233q0 -78 10.5 -110.5t53.5 -49.5v-28 q-23 -7 -39 -7q-102 0 -102 166q0 61 -12 106.5t-29 68.5t-40 37t-38 17t-31 3h-256v-396h-84zM604 743h266q64 0 110 45.5t46 108.5q0 64 -45.5 107t-110.5 43h-266v-304z" />
<glyph unicode="&#xaf;" horiz-adv-x="942" d="M145 1417v90h652v-90h-652z" />
<glyph unicode="&#xb0;" horiz-adv-x="806" d="M96 1118q0 126 90 216.5t217 90.5q126 0 217 -90.5t91 -216.5q0 -127 -91 -217t-217 -90q-127 0 -216 89.5t-91 217.5zM186 1116q0 -91 63 -154t154 -63t154.5 63t63.5 154t-63.5 154t-154.5 63t-154 -63t-63 -154z" />
<glyph unicode="&#xb1;" d="M104 586v119h465v342h119v-342h465v-119h-465v-340h-119v340h-465zM117 0v119h1024v-119h-1024z" />
<glyph unicode="&#xb2;" horiz-adv-x="786" d="M125 864v39q0 65 30.5 111t90.5 86l219 145q92 63 92 158q0 75 -44 121.5t-122 46.5q-75 0 -124.5 -49t-49.5 -123q0 -25 2 -39h-84q-2 10 -2 31q0 115 74 186.5t184 71.5q114 0 182 -69t68 -173q0 -142 -137 -233l-230 -154q-55 -37 -55 -78h426v-78h-520z" />
<glyph unicode="&#xb3;" horiz-adv-x="743" d="M86 1067v31h82v-33q0 -67 49.5 -106t130.5 -39q80 0 130 38t50 107q0 73 -51 111t-129 38h-96v76h90q74 0 122 34.5t48 100.5q0 68 -46.5 104t-117.5 36q-72 0 -118 -37.5t-46 -102.5v-26h-82v26q0 100 70 157.5t176 57.5t177 -56.5t71 -158.5q0 -65 -26 -100.5 t-81 -67.5q121 -54 121 -190q0 -101 -76 -161t-186 -60q-115 0 -188.5 60.5t-73.5 160.5z" />
<glyph unicode="&#xb4;" horiz-adv-x="681" d="M139 1178l197 297h133v-7l-227 -290h-103z" />
<glyph unicode="&#xb5;" horiz-adv-x="1253" d="M168 -330v1377h104v-660q0 -154 78.5 -233.5t216.5 -79.5t230 94t92 235v644h104v-906q0 -67 56 -67q47 0 102 32v-88q-56 -38 -131 -38q-47 0 -78 28t-42 65.5t-11 82.5q-54 -83 -141.5 -129.5t-190.5 -46.5q-90 0 -170 31t-127 93q12 -59 12 -102v-332h-104z" />
<glyph unicode="&#xb6;" horiz-adv-x="1073" d="M51 954q0 202 129 326.5t320 124.5h430v-100h-135v-1661h-107v1661h-147v-1661h-107v866q-164 25 -273.5 150.5t-109.5 293.5z" />
<glyph unicode="&#xb7;" horiz-adv-x="481" d="M174 520v142h133v-142h-133z" />
<glyph unicode="&#xb8;" horiz-adv-x="716" d="M143 -283q50 -26 142 -26q155 0 155 110q0 44 -36 69.5t-82 25.5h-46v69h52q44 0 81 -9t68.5 -29t49.5 -56.5t18 -87.5q0 -53 -24 -92t-62.5 -58t-77 -27.5t-78.5 -8.5q-89 0 -160 26v94z" />
<glyph unicode="&#xb9;" horiz-adv-x="684" d="M102 864v78h209v584h-209v59q68 3 120 12.5t130 34.5h45v-690h158v-78h-453z" />
<glyph unicode="&#xba;" horiz-adv-x="802" d="M109 1092v18q0 150 74 235t194 85q123 0 197.5 -84.5t74.5 -235.5v-18q0 -151 -74.5 -235.5t-197.5 -84.5q-120 0 -194 85t-74 235zM190 1085q0 -118 52 -178.5t135 -60.5q84 0 136 60.5t52 178.5v31q0 117 -52 177.5t-136 60.5q-82 0 -134.5 -61t-52.5 -177v-31z" />
<glyph unicode="&#xbb;" horiz-adv-x="942" d="M115 334l198 356l-198 357h84l254 -357l-254 -356h-84zM489 334l199 356l-199 357h84l252 -357l-252 -356h-84z" />
<glyph unicode="&#xbc;" horiz-adv-x="1437" d="M74 637v78h209v583h-209v60q68 3 120 12.5t130 34.5h45v-690h157v-78h-452zM260 0l860 1405h90l-854 -1405h-96zM874 201v69q36 43 123 208t133 290h89q-43 -126 -116 -272.5t-128 -219.5h270v267q36 74 43 94h41v-361h88v-75h-88v-201h-84v201h-371z" />
<glyph unicode="&#xbd;" horiz-adv-x="1486" d="M68 637v78h208v583h-208v60q68 3 119 12.5t130 34.5h45v-690h158v-78h-452zM254 0l860 1405h90l-854 -1405h-96zM899 0v39q0 65 30.5 111t90.5 86l219 145q92 63 92 158q0 75 -44 121.5t-122 46.5q-75 0 -124.5 -49t-49.5 -123q0 -25 2 -39h-84q-2 10 -2 30 q0 115 74 186.5t184 71.5q114 0 182 -68.5t68 -172.5q0 -143 -137 -234l-229 -153q-56 -38 -56 -78h426v-78h-520z" />
<glyph unicode="&#xbe;" horiz-adv-x="1429" d="M63 844v30h82v-32q0 -67 50 -106.5t131 -39.5q80 0 130 38.5t50 107.5q0 73 -51 111t-129 38h-97v76h90q74 0 122 34.5t48 100.5q0 68 -46 103.5t-117 35.5q-72 0 -118 -37t-46 -102v-26h-82v26q0 100 70 157.5t176 57.5t176.5 -56.5t70.5 -158.5q0 -65 -26 -100.5 t-80 -67.5q121 -54 121 -190q0 -101 -76 -161t-186 -60q-116 0 -189.5 60.5t-73.5 160.5zM301 0l860 1405h90l-854 -1405h-96zM915 201v69q36 43 123 208t133 290h89q-43 -126 -116 -272.5t-128 -219.5h270v267q36 74 43 94h41v-361h88v-75h-88v-201h-84v201h-371z" />
<glyph unicode="&#xbf;" horiz-adv-x="1013" d="M72 -8q0 74 18 134t46.5 99.5t63 73t68.5 61.5t62.5 57t46.5 68.5t18 87.5v134h111v-160q0 -51 -18 -93t-46.5 -73t-63 -60.5t-69 -60.5t-63 -66.5t-46.5 -86t-18 -111.5q0 -30 5.5 -61.5t23.5 -72t47.5 -71t83 -51.5t123.5 -21q59 0 107 14t79.5 36t55.5 52t36.5 59 t20.5 61t10 53.5t2 40.5l-6 59h111q6 -18 6 -67q0 -18 -2.5 -42.5t-13 -65.5t-27.5 -79.5t-49.5 -79.5t-75 -71.5t-108 -50t-144.5 -19.5t-143.5 19.5t-104.5 48.5t-69.5 69t-44 74.5t-22.5 73.5t-9.5 56.5t-1.5 31.5zM385 905v142h133v-142h-133z" />
<glyph unicode="&#xc0;" horiz-adv-x="1335" d="M8 0l582 1405h102l582 -1405h-121l-145 348h-742l-143 -348h-115zM307 449h660l-326 804h-8zM387 1827v6h133l197 -297h-103z" />
<glyph unicode="&#xc1;" horiz-adv-x="1335" d="M8 0l582 1405h102l582 -1405h-121l-145 348h-742l-143 -348h-115zM307 449h660l-326 804h-8zM608 1536l197 297h133v-6l-227 -291h-103z" />
<glyph unicode="&#xc2;" horiz-adv-x="1335" d="M8 0l582 1405h102l582 -1405h-121l-145 348h-742l-143 -348h-115zM307 449h660l-326 804h-8zM309 1536l275 297h118l275 -297h-123l-211 199l-211 -199h-123z" />
<glyph unicode="&#xc3;" horiz-adv-x="1335" d="M8 0l582 1405h102l582 -1405h-121l-145 348h-742l-143 -348h-115zM270 1536q0 27 10.5 54.5t32.5 54t64.5 43t99.5 16.5q68 0 178.5 -33t163.5 -33q51 0 79 15.5t38 50.5h76q0 -27 -10 -54.5t-32 -54t-65 -43t-100 -16.5q-68 0 -178.5 33t-163.5 33q-51 0 -79 -15.5 t-38 -50.5h-76zM307 449h660l-326 804h-8z" />
<glyph unicode="&#xc4;" horiz-adv-x="1335" d="M8 0l582 1405h102l582 -1405h-121l-145 348h-742l-143 -348h-115zM307 449h660l-326 804h-8zM397 1536v141h133v-141h-133zM758 1536v141h133v-141h-133z" />
<glyph unicode="&#xc5;" horiz-adv-x="1335" d="M8 0l582 1405h102l582 -1405h-121l-145 348h-742l-143 -348h-115zM307 449h660l-326 804h-8zM436 1679q0 86 60.5 146.5t146.5 60.5q85 0 146 -60t61 -147q0 -85 -60.5 -144.5t-146.5 -59.5q-85 0 -146 59t-61 145zM510 1679q0 -55 39 -93t94 -38t94 38.5t39 92.5 q0 56 -39 94.5t-94 38.5t-94 -39t-39 -94z" />
<glyph unicode="&#xc6;" horiz-adv-x="2013" d="M14 0l781 1405h1054l-24 -98h-910l148 -541h682v-98h-655l155 -570h606l19 -98h-715l-96 348h-725l-193 -348h-127zM389 449h643l-211 796l-6 -2z" />
<glyph unicode="&#xc7;" horiz-adv-x="1357" d="M127 676v53q0 165 26.5 288.5t72 200.5t114.5 124t144 65t171 18q521 0 521 -536h-109q0 102 -22.5 180t-60 126.5t-92 78.5t-111.5 41.5t-126 11.5q-76 0 -136 -14.5t-114 -53.5t-89.5 -102t-56.5 -165t-21 -238v-103q0 -136 21 -238t56.5 -165t89.5 -102t114 -53.5 t136 -14.5q412 0 412 436h109q0 -121 -28.5 -215t-76.5 -153t-116.5 -97.5t-141.5 -53.5t-158 -15q-96 0 -171 18t-144 65t-114.5 124t-72 200.5t-26.5 288.5zM453 -283q50 -26 141 -26q156 0 156 110q0 44 -36.5 69.5t-82.5 25.5h-45v69h51q44 0 81 -9t68.5 -29t49.5 -56.5 t18 -87.5q0 -53 -24 -92t-62.5 -58t-77 -27.5t-78.5 -8.5q-88 0 -159 26v94z" />
<glyph unicode="&#xc8;" horiz-adv-x="1214" d="M188 0v1405h869l-21 -98h-737v-541h653v-98h-653v-570h756l22 -98h-889zM377 1827v6h133l197 -297h-103z" />
<glyph unicode="&#xc9;" horiz-adv-x="1214" d="M188 0v1405h869l-21 -98h-737v-541h653v-98h-653v-570h756l22 -98h-889zM580 1536l196 297h133v-6l-227 -291h-102z" />
<glyph unicode="&#xca;" horiz-adv-x="1214" d="M188 0v1405h869l-21 -98h-737v-541h653v-98h-653v-570h756l22 -98h-889zM295 1536l274 297h119l275 -297h-123l-211 199l-211 -199h-123z" />
<glyph unicode="&#xcb;" horiz-adv-x="1214" d="M188 0v1405h869l-21 -98h-737v-541h653v-98h-653v-570h756l22 -98h-889zM373 1536v141h133v-141h-133zM733 1536v141h133v-141h-133z" />
<glyph unicode="&#xcc;" horiz-adv-x="745" d="M20 1827v6h134l196 -297h-102zM66 0v100h161v1205h-161v100h434v-100h-162v-1205h162v-100h-434z" />
<glyph unicode="&#xcd;" horiz-adv-x="745" d="M109 0v100h161v1205h-161v100h434v-100h-162v-1205h162v-100h-434zM276 1536l197 297h133v-6l-227 -291h-103z" />
<glyph unicode="&#xce;" horiz-adv-x="745" d="M-55 1536l274 297h119l274 -297h-123l-210 199l-211 -199h-123zM61 0v100h162v1205h-162v100h435v-100h-162v-1205h162v-100h-435z" />
<glyph unicode="&#xcf;" horiz-adv-x="745" d="M59 1538v141h134v-141h-134zM88 0v100h162v1205h-162v100h434v-100h-162v-1205h162v-100h-434zM420 1538v141h133v-141h-133z" />
<glyph unicode="&#xd0;" horiz-adv-x="1394" d="M10 653v99h205v653h451q95 0 172.5 -19t148.5 -66.5t119 -123t76 -194t28 -273.5v-51q0 -678 -544 -678h-451v653h-205zM326 98h340q76 0 137.5 15t118.5 54t95 101.5t60.5 161.5t22.5 229v89q0 559 -434 559h-340v-555h352v-99h-352v-555z" />
<glyph unicode="&#xd1;" horiz-adv-x="1421" d="M188 0v1405h95l782 -1194h6v1194h98v-1405h-98l-778 1194h-6v-1194h-99zM326 1536q0 27 10 54.5t32 54t64.5 43t99.5 16.5q68 0 178.5 -33t163.5 -33q51 0 79 15.5t38 50.5h76q0 -27 -10 -54.5t-32 -54t-65 -43t-100 -16.5q-68 0 -178.5 33t-163.5 33q-51 0 -79 -15.5 t-38 -50.5h-75z" />
<glyph unicode="&#xd2;" horiz-adv-x="1413" d="M125 676v53q0 164 28.5 288t76 200.5t119 124t148.5 65.5t173 18t173 -18t148 -65.5t118.5 -124t76 -200.5t28.5 -288v-53q0 -164 -28.5 -288t-76 -200.5t-118.5 -124t-148 -65.5t-173 -18t-173 18t-148.5 65.5t-119 124t-76 200.5t-28.5 288zM236 651q0 -136 22.5 -238 t60.5 -165t95 -102t118 -53.5t138 -14.5t138 14.5t118 53.5t95 102t60.5 165t22.5 238v103q0 136 -22.5 238t-60.5 165t-95 102t-118 53.5t-138 14.5t-138 -14.5t-118 -53.5t-95 -102t-60.5 -165t-22.5 -238v-103zM406 1827v6h133l196 -297h-102z" />
<glyph unicode="&#xd3;" horiz-adv-x="1413" d="M125 676v53q0 164 28.5 288t76 200.5t119 124t148.5 65.5t173 18t173 -18t148 -65.5t118.5 -124t76 -200.5t28.5 -288v-53q0 -164 -28.5 -288t-76 -200.5t-118.5 -124t-148 -65.5t-173 -18t-173 18t-148.5 65.5t-119 124t-76 200.5t-28.5 288zM236 651q0 -136 22.5 -238 t60.5 -165t95 -102t118 -53.5t138 -14.5t138 14.5t118 53.5t95 102t60.5 165t22.5 238v103q0 136 -22.5 238t-60.5 165t-95 102t-118 53.5t-138 14.5t-138 -14.5t-118 -53.5t-95 -102t-60.5 -165t-22.5 -238v-103zM625 1536l196 297h133v-6l-227 -291h-102z" />
<glyph unicode="&#xd4;" horiz-adv-x="1413" d="M125 676v53q0 164 28.5 288t76 200.5t119 124t148.5 65.5t173 18t173 -18t148 -65.5t118.5 -124t76 -200.5t28.5 -288v-53q0 -164 -28.5 -288t-76 -200.5t-118.5 -124t-148 -65.5t-173 -18t-173 18t-148.5 65.5t-119 124t-76 200.5t-28.5 288zM236 651q0 -136 22.5 -238 t60.5 -165t95 -102t118 -53.5t138 -14.5t138 14.5t118 53.5t95 102t60.5 165t22.5 238v103q0 136 -22.5 238t-60.5 165t-95 102t-118 53.5t-138 14.5t-138 -14.5t-118 -53.5t-95 -102t-60.5 -165t-22.5 -238v-103zM346 1536l275 297h118l275 -297h-123l-211 199l-211 -199 h-123z" />
<glyph unicode="&#xd5;" horiz-adv-x="1413" d="M125 676v53q0 164 28.5 288t76 200.5t119 124t148.5 65.5t173 18t173 -18t148 -65.5t118.5 -124t76 -200.5t28.5 -288v-53q0 -164 -28.5 -288t-76 -200.5t-118.5 -124t-148 -65.5t-173 -18t-173 18t-148.5 65.5t-119 124t-76 200.5t-28.5 288zM236 651q0 -136 22.5 -238 t60.5 -165t95 -102t118 -53.5t138 -14.5t138 14.5t118 53.5t95 102t60.5 165t22.5 238v103q0 136 -22.5 238t-60.5 165t-95 102t-118 53.5t-138 14.5t-138 -14.5t-118 -53.5t-95 -102t-60.5 -165t-22.5 -238v-103zM311 1538q0 27 10.5 54.5t32.5 54t64.5 43t99.5 16.5 q68 0 178.5 -33t163.5 -33q51 0 79 15.5t38 50.5h76q0 -27 -10 -54.5t-32 -54t-65 -43t-100 -16.5q-68 0 -178.5 33t-163.5 33q-51 0 -79 -15.5t-38 -50.5h-76z" />
<glyph unicode="&#xd6;" horiz-adv-x="1413" d="M125 676v53q0 164 28.5 288t76 200.5t119 124t148.5 65.5t173 18t173 -18t148 -65.5t118.5 -124t76 -200.5t28.5 -288v-53q0 -164 -28.5 -288t-76 -200.5t-118.5 -124t-148 -65.5t-173 -18t-173 18t-148.5 65.5t-119 124t-76 200.5t-28.5 288zM236 651q0 -136 22.5 -238 t60.5 -165t95 -102t118 -53.5t138 -14.5t138 14.5t118 53.5t95 102t60.5 165t22.5 238v103q0 136 -22.5 238t-60.5 165t-95 102t-118 53.5t-138 14.5t-138 -14.5t-118 -53.5t-95 -102t-60.5 -165t-22.5 -238v-103zM424 1538v141h133v-141h-133zM784 1538v141h134v-141h-134z " />
<glyph unicode="&#xd7;" d="M203 195l327 327l-327 330l84 84l327 -330l330 330l84 -84l-330 -330l328 -327l-84 -84l-328 327l-327 -327z" />
<glyph unicode="&#xd8;" horiz-adv-x="1413" d="M125 -133l154 256q-154 170 -154 553v53q0 164 28.5 288t76 200.5t119 124t148.5 65.5t173 18q206 0 331 -90l125 209h91l-158 -262q155 -168 155 -553v-53q0 -164 -28.5 -288t-76 -200.5t-118.5 -124t-148 -65.5t-173 -18q-210 0 -332 90l-121 -203h-92zM236 651 q0 -290 100 -430l610 1022q-101 84 -276 84q-77 0 -138 -14.5t-118 -53.5t-95 -102t-60.5 -165t-22.5 -238v-103zM391 162q101 -84 279 -84q77 0 138 14.5t118 53.5t95 102t60.5 165t22.5 238v103q0 286 -103 430z" />
<glyph unicode="&#xd9;" horiz-adv-x="1392" d="M176 451v954h111v-950q0 -173 99 -275t278 -102t278.5 103.5t99.5 273.5v950h111v-954q0 -214 -134 -342.5t-355 -128.5t-354.5 128.5t-133.5 342.5zM399 1827v6h133l197 -297h-102z" />
<glyph unicode="&#xda;" horiz-adv-x="1392" d="M176 451v954h111v-950q0 -173 99 -275t278 -102t278.5 103.5t99.5 273.5v950h111v-954q0 -214 -134 -342.5t-355 -128.5t-354.5 128.5t-133.5 342.5zM610 1536l197 297h133v-6l-227 -291h-103z" />
<glyph unicode="&#xdb;" horiz-adv-x="1392" d="M176 451v954h111v-950q0 -173 99 -275t278 -102t278.5 103.5t99.5 273.5v950h111v-954q0 -214 -134 -342.5t-355 -128.5t-354.5 128.5t-133.5 342.5zM332 1536l274 297h119l274 -297h-122l-211 199l-211 -199h-123z" />
<glyph unicode="&#xdc;" horiz-adv-x="1392" d="M176 451v954h111v-950q0 -173 99 -275t278 -102t278.5 103.5t99.5 273.5v950h111v-954q0 -214 -134 -342.5t-355 -128.5t-354.5 128.5t-133.5 342.5zM418 1538v141h133v-141h-133zM778 1538v141h133v-141h-133z" />
<glyph unicode="&#xdd;" horiz-adv-x="1171" d="M-10 1405h129l432 -748h6l438 748h113l-504 -860v-545h-110v545zM522 1536l197 297h133v-6l-227 -291h-103z" />
<glyph unicode="&#xde;" horiz-adv-x="1296" d="M188 0v1405h111v-277h465q158 0 270.5 -112.5t112.5 -270.5t-112.5 -270.5t-270.5 -112.5h-465v-362h-111zM299 459h451q120 0 205 83t85 203t-85 202.5t-205 82.5h-451v-571z" />
<glyph unicode="&#xdf;" horiz-adv-x="1257" d="M94 952v95h115q0 201 120.5 322.5t315.5 121.5q173 0 285 -109t112 -268q0 -102 -60 -193.5t-148 -125.5l4 -7q109 -41 179 -145t70 -227q0 -173 -128.5 -294.5t-311.5 -121.5h-188v94h188q139 0 237.5 94t98.5 228t-98.5 228.5t-237.5 94.5h-188v95h166q129 0 221 81.5 t92 198.5q0 120 -82 201.5t-211 81.5q-152 0 -242 -94.5t-90 -249.5v-1188h-104v1087h-115z" />
<glyph unicode="&#xe0;" horiz-adv-x="1198" d="M98 272q0 50 11.5 91.5t30.5 73.5t51 57t67.5 42.5t85.5 30.5t98 20.5t112.5 11.5t122.5 5.5t134 1.5v131q0 132 -62 184t-210 52q-135 0 -217 -51.5t-82 -161.5v-33h-101q-4 32 -4 53q0 134 114.5 210.5t289.5 76.5q191 0 283.5 -75.5t92.5 -233.5v-617q0 -67 56 -67 q47 0 102 32v-88q-56 -38 -131 -38q-50 0 -80 28t-40.5 70.5t-10.5 103.5q-121 -202 -383 -202q-53 0 -99 8t-89.5 28.5t-74 52.5t-49 84t-18.5 119zM203 270q0 -102 58 -149t188 -47q68 0 131 22.5t115.5 65.5t84 115.5t31.5 164.5v70q-91 0 -151 -1.5t-130 -7t-114 -15.5 t-88.5 -27.5t-69 -43t-40 -62.5t-15.5 -85zM285 1468v7h133l196 -297h-102z" />
<glyph unicode="&#xe1;" horiz-adv-x="1198" d="M98 272q0 50 11.5 91.5t30.5 73.5t51 57t67.5 42.5t85.5 30.5t98 20.5t112.5 11.5t122.5 5.5t134 1.5v131q0 132 -62 184t-210 52q-135 0 -217 -51.5t-82 -161.5v-33h-101q-4 32 -4 53q0 134 114.5 210.5t289.5 76.5q191 0 283.5 -75.5t92.5 -233.5v-617q0 -67 56 -67 q47 0 102 32v-88q-56 -38 -131 -38q-50 0 -80 28t-40.5 70.5t-10.5 103.5q-121 -202 -383 -202q-53 0 -99 8t-89.5 28.5t-74 52.5t-49 84t-18.5 119zM203 270q0 -102 58 -149t188 -47q68 0 131 22.5t115.5 65.5t84 115.5t31.5 164.5v70q-91 0 -151 -1.5t-130 -7t-114 -15.5 t-88.5 -27.5t-69 -43t-40 -62.5t-15.5 -85zM514 1178l197 297h133v-7l-228 -290h-102z" />
<glyph unicode="&#xe2;" horiz-adv-x="1198" d="M98 272q0 50 11.5 91.5t30.5 73.5t51 57t67.5 42.5t85.5 30.5t98 20.5t112.5 11.5t122.5 5.5t134 1.5v131q0 132 -62 184t-210 52q-135 0 -217 -51.5t-82 -161.5v-33h-101q-4 32 -4 53q0 134 114.5 210.5t289.5 76.5q191 0 283.5 -75.5t92.5 -233.5v-617q0 -67 56 -67 q47 0 102 32v-88q-56 -38 -131 -38q-50 0 -80 28t-40.5 70.5t-10.5 103.5q-121 -202 -383 -202q-53 0 -99 8t-89.5 28.5t-74 52.5t-49 84t-18.5 119zM203 270q0 -102 58 -149t188 -47q68 0 131 22.5t115.5 65.5t84 115.5t31.5 164.5v70q-91 0 -151 -1.5t-130 -7t-114 -15.5 t-88.5 -27.5t-69 -43t-40 -62.5t-15.5 -85zM223 1178l275 297h118l275 -297h-123l-211 198l-211 -198h-123z" />
<glyph unicode="&#xe3;" horiz-adv-x="1198" d="M98 272q0 50 11.5 91.5t30.5 73.5t51 57t67.5 42.5t85.5 30.5t98 20.5t112.5 11.5t122.5 5.5t134 1.5v131q0 132 -62 184t-210 52q-135 0 -217 -51.5t-82 -161.5v-33h-101q-4 32 -4 53q0 134 114.5 210.5t289.5 76.5q191 0 283.5 -75.5t92.5 -233.5v-617q0 -67 56 -67 q47 0 102 32v-88q-56 -38 -131 -38q-50 0 -80 28t-40.5 70.5t-10.5 103.5q-121 -202 -383 -202q-53 0 -99 8t-89.5 28.5t-74 52.5t-49 84t-18.5 119zM166 1307q0 27 10.5 54.5t32.5 54t64.5 43t99.5 16.5q68 0 178.5 -33t163.5 -33q51 0 78.5 15.5t37.5 50.5h76 q0 -27 -10 -54.5t-32 -54t-65 -43t-100 -16.5q-68 0 -178.5 32.5t-163.5 32.5q-51 0 -78.5 -15t-37.5 -50h-76zM203 270q0 -102 58 -149t188 -47q68 0 131 22.5t115.5 65.5t84 115.5t31.5 164.5v70q-91 0 -151 -1.5t-130 -7t-114 -15.5t-88.5 -27.5t-69 -43t-40 -62.5 t-15.5 -85z" />
<glyph unicode="&#xe4;" horiz-adv-x="1198" d="M98 272q0 50 11.5 91.5t30.5 73.5t51 57t67.5 42.5t85.5 30.5t98 20.5t112.5 11.5t122.5 5.5t134 1.5v131q0 132 -62 184t-210 52q-135 0 -217 -51.5t-82 -161.5v-33h-101q-4 32 -4 53q0 134 114.5 210.5t289.5 76.5q191 0 283.5 -75.5t92.5 -233.5v-617q0 -67 56 -67 q47 0 102 32v-88q-56 -38 -131 -38q-50 0 -80 28t-40.5 70.5t-10.5 103.5q-121 -202 -383 -202q-53 0 -99 8t-89.5 28.5t-74 52.5t-49 84t-18.5 119zM203 270q0 -102 58 -149t188 -47q68 0 131 22.5t115.5 65.5t84 115.5t31.5 164.5v70q-91 0 -151 -1.5t-130 -7t-114 -15.5 t-88.5 -27.5t-69 -43t-40 -62.5t-15.5 -85zM293 1333v142h133v-142h-133zM653 1333v142h133v-142h-133z" />
<glyph unicode="&#xe5;" horiz-adv-x="1198" d="M98 272q0 50 11.5 91.5t30.5 73.5t51 57t67.5 42.5t85.5 30.5t98 20.5t112.5 11.5t122.5 5.5t134 1.5v131q0 132 -62 184t-210 52q-135 0 -217 -51.5t-82 -161.5v-33h-101q-4 32 -4 53q0 134 114.5 210.5t289.5 76.5q191 0 283.5 -75.5t92.5 -233.5v-617q0 -67 56 -67 q47 0 102 32v-88q-56 -38 -131 -38q-50 0 -80 28t-40.5 70.5t-10.5 103.5q-121 -202 -383 -202q-53 0 -99 8t-89.5 28.5t-74 52.5t-49 84t-18.5 119zM203 270q0 -102 58 -149t188 -47q68 0 131 22.5t115.5 65.5t84 115.5t31.5 164.5v70q-91 0 -151 -1.5t-130 -7t-114 -15.5 t-88.5 -27.5t-69 -43t-40 -62.5t-15.5 -85zM334 1341q0 86 60.5 146.5t146.5 60.5q85 0 146 -60t61 -147q0 -85 -60.5 -144.5t-146.5 -59.5q-85 0 -146 59t-61 145zM408 1341q0 -55 39 -93t94 -38t94 38.5t39 92.5q0 56 -39 95t-94 39t-94 -39t-39 -95z" />
<glyph unicode="&#xe6;" horiz-adv-x="1832" d="M98 272q0 50 11.5 91.5t30.5 73.5t51 57t67.5 42.5t85.5 30.5t98 20.5t112.5 11.5t122.5 5.5t134 1.5v131q0 132 -62 184t-210 52q-135 0 -217 -51.5t-82 -161.5v-33h-101q-4 32 -4 53q0 134 114.5 210.5t289.5 76.5q295 0 358 -186q120 186 350 186q178 0 294 -113 t116 -311v-131h-742v-16q0 -205 93 -313.5t241 -108.5q131 0 218 80t87 233h103q0 -190 -116 -298.5t-292 -108.5q-134 0 -234.5 66t-154.5 190q-42 -90 -116.5 -150t-152.5 -83t-163 -23q-73 0 -129.5 13.5t-103.5 45.5t-72 90.5t-25 142.5zM203 270q0 -104 55 -150 t191 -46q68 0 131 22.5t115.5 65.5t84 115.5t31.5 164.5v70q-91 0 -151 -1.5t-130 -7t-114 -15.5t-88.5 -27.5t-69 -43t-40 -62.5t-15.5 -85zM918 606h636v37q0 160 -87 245t-220 85q-137 0 -227 -94.5t-102 -272.5z" />
<glyph unicode="&#xe7;" horiz-adv-x="1114" d="M104 508v31q0 249 120 388.5t317 139.5q178 0 293.5 -113t115.5 -311h-102q0 160 -87 245t-220 85q-148 0 -240 -108t-92 -314v-55q0 -205 93 -313.5t241 -108.5q133 0 219 83.5t86 245.5h102q0 -198 -114.5 -310.5t-292.5 -112.5q-198 0 -318.5 139.5t-120.5 388.5z M340 -283q50 -26 141 -26q156 0 156 110q0 44 -36.5 69.5t-82.5 25.5h-45v69h51q44 0 81 -9t68.5 -29t49.5 -56.5t18 -87.5q0 -43 -16.5 -76.5t-41 -53.5t-58 -33.5t-64 -18t-61.5 -4.5q-89 0 -160 26v94z" />
<glyph unicode="&#xe8;" horiz-adv-x="1138" d="M104 508v31q0 249 120 388.5t317 139.5q178 0 293.5 -113t115.5 -311v-131h-741v-16q0 -205 93 -313.5t241 -108.5q131 0 218 80t87 233h102q0 -190 -115.5 -298.5t-291.5 -108.5q-198 0 -318.5 139.5t-120.5 388.5zM211 606h637v37q0 160 -87 245t-220 85 q-137 0 -227.5 -94.5t-102.5 -272.5zM274 1468v7h134l196 -297h-102z" />
<glyph unicode="&#xe9;" horiz-adv-x="1138" d="M104 508v31q0 249 120 388.5t317 139.5q178 0 293.5 -113t115.5 -311v-131h-741v-16q0 -205 93 -313.5t241 -108.5q131 0 218 80t87 233h102q0 -190 -115.5 -298.5t-291.5 -108.5q-198 0 -318.5 139.5t-120.5 388.5zM211 606h637v37q0 160 -87 245t-220 85 q-137 0 -227.5 -94.5t-102.5 -272.5zM502 1178l196 297h133v-7l-227 -290h-102z" />
<glyph unicode="&#xea;" horiz-adv-x="1138" d="M104 508v31q0 249 120 388.5t317 139.5q178 0 293.5 -113t115.5 -311v-131h-741v-16q0 -205 93 -313.5t241 -108.5q131 0 218 80t87 233h102q0 -190 -115.5 -298.5t-291.5 -108.5q-198 0 -318.5 139.5t-120.5 388.5zM211 606h637v37q0 160 -87 245t-220 85 q-137 0 -227.5 -94.5t-102.5 -272.5zM211 1178l274 297h119l275 -297h-123l-211 198l-211 -198h-123z" />
<glyph unicode="&#xeb;" horiz-adv-x="1138" d="M104 508v31q0 249 120 388.5t317 139.5q178 0 293.5 -113t115.5 -311v-131h-741v-16q0 -205 93 -313.5t241 -108.5q131 0 218 80t87 233h102q0 -190 -115.5 -298.5t-291.5 -108.5q-198 0 -318.5 139.5t-120.5 388.5zM211 606h637v37q0 160 -87 245t-220 85 q-137 0 -227.5 -94.5t-102.5 -272.5zM307 1333v142h133v-142h-133zM668 1333v142h133v-142h-133z" />
<glyph unicode="&#xec;" horiz-adv-x="532" d="M12 1468v7h133l197 -297h-102zM233 0v1047h105v-1047h-105z" />
<glyph unicode="&#xed;" horiz-adv-x="532" d="M190 1178l197 297h133v-7l-227 -290h-103zM195 0v1047h104v-1047h-104z" />
<glyph unicode="&#xee;" horiz-adv-x="532" d="M-63 1178l274 297h119l274 -297h-123l-211 198l-211 -198h-122zM221 0v1047h105v-1047h-105z" />
<glyph unicode="&#xef;" horiz-adv-x="532" d="M23 1333v142h133v-142h-133zM217 0v1047h105v-1047h-105zM383 1333v142h133v-142h-133z" />
<glyph unicode="&#xf0;" horiz-adv-x="1177" d="M106 508v31q0 248 122.5 388t320.5 140q74 0 153 -27q-96 115 -231 230l-209 -103l-53 47l207 101q-63 48 -189 133l76 35q136 -87 195 -129l213 102l47 -47l-203 -98q196 -152 316 -347.5t120 -424.5v-31q0 -248 -122 -388t-320 -140t-320.5 140t-122.5 388zM211 496 q0 -205 94.5 -313.5t243.5 -108.5t243.5 108.5t94.5 313.5v55q0 205 -94.5 313.5t-243.5 108.5t-243.5 -108.5t-94.5 -313.5v-55z" />
<glyph unicode="&#xf1;" horiz-adv-x="1214" d="M170 0v1047h70l22 -156q53 82 146.5 129t197.5 47q172 0 279.5 -99t107.5 -294v-674h-102v643q0 166 -76.5 248t-218.5 82q-138 0 -230 -94.5t-92 -235.5v-643h-104zM225 1305q0 27 10.5 54.5t32.5 54t64.5 43t99.5 16.5q68 0 178.5 -33t163.5 -33q51 0 79 15.5t38 50.5 h76q0 -27 -10 -54.5t-32 -54t-65 -43t-100 -16.5q-68 0 -178.5 32.5t-163.5 32.5q-52 0 -79.5 -15t-37.5 -50h-76z" />
<glyph unicode="&#xf2;" horiz-adv-x="1175" d="M106 508v31q0 248 122.5 388t320.5 140t320 -140t122 -388v-31q0 -248 -122 -388t-320 -140t-320.5 140t-122.5 388zM211 496q0 -205 94.5 -313.5t243.5 -108.5t243.5 108.5t94.5 313.5v55q0 205 -94.5 313.5t-243.5 108.5t-243.5 -108.5t-94.5 -313.5v-55zM289 1468v7 h133l196 -297h-102z" />
<glyph unicode="&#xf3;" horiz-adv-x="1175" d="M106 508v31q0 248 122.5 388t320.5 140t320 -140t122 -388v-31q0 -248 -122 -388t-320 -140t-320.5 140t-122.5 388zM211 496q0 -205 94.5 -313.5t243.5 -108.5t243.5 108.5t94.5 313.5v55q0 205 -94.5 313.5t-243.5 108.5t-243.5 -108.5t-94.5 -313.5v-55zM520 1178 l197 297h133v-7l-227 -290h-103z" />
<glyph unicode="&#xf4;" horiz-adv-x="1175" d="M106 508v31q0 248 122.5 388t320.5 140t320 -140t122 -388v-31q0 -248 -122 -388t-320 -140t-320.5 140t-122.5 388zM211 496q0 -205 94.5 -313.5t243.5 -108.5t243.5 108.5t94.5 313.5v55q0 205 -94.5 313.5t-243.5 108.5t-243.5 -108.5t-94.5 -313.5v-55zM221 1178 l275 297h118l275 -297h-123l-211 198l-211 -198h-123z" />
<glyph unicode="&#xf5;" horiz-adv-x="1175" d="M106 508v31q0 248 122.5 388t320.5 140t320 -140t122 -388v-31q0 -248 -122 -388t-320 -140t-320.5 140t-122.5 388zM182 1307q0 27 10.5 54.5t32.5 54t64.5 43t99.5 16.5q68 0 178.5 -33t163.5 -33q51 0 79 15.5t38 50.5h76q0 -27 -10 -54.5t-32 -54t-65 -43t-100 -16.5 q-68 0 -178.5 32.5t-163.5 32.5q-52 0 -79.5 -15t-37.5 -50h-76zM211 496q0 -205 94.5 -313.5t243.5 -108.5t243.5 108.5t94.5 313.5v55q0 205 -94.5 313.5t-243.5 108.5t-243.5 -108.5t-94.5 -313.5v-55z" />
<glyph unicode="&#xf6;" horiz-adv-x="1175" d="M106 508v31q0 248 122.5 388t320.5 140t320 -140t122 -388v-31q0 -248 -122 -388t-320 -140t-320.5 140t-122.5 388zM211 496q0 -205 94.5 -313.5t243.5 -108.5t243.5 108.5t94.5 313.5v55q0 205 -94.5 313.5t-243.5 108.5t-243.5 -108.5t-94.5 -313.5v-55zM303 1333v142 h133v-142h-133zM664 1333v142h133v-142h-133z" />
<glyph unicode="&#xf7;" d="M104 463v119h1049v-119h-1049zM561 145v142h133v-142h-133zM561 758v141h133v-141h-133z" />
<glyph unicode="&#xf8;" horiz-adv-x="1175" d="M106 -113l136 217q-136 142 -136 404v31q0 248 122.5 388t320.5 140q137 0 244 -74l106 172h92l-137 -221q137 -143 137 -405v-31q0 -248 -122 -388t-320 -140q-144 0 -248 73l-102 -166h-93zM211 496q0 -189 86 -303l444 718q-80 62 -192 62q-149 0 -243.5 -108.5 t-94.5 -313.5v-55zM352 135q82 -61 197 -61q149 0 243.5 108.5t94.5 313.5v55q0 193 -88 305z" />
<glyph unicode="&#xf9;" horiz-adv-x="1265" d="M160 373v674h104v-644q0 -166 76.5 -247.5t218.5 -81.5q138 0 230 94t92 235v644h104v-906q0 -67 55 -67q48 0 103 32v-88q-56 -38 -131 -38q-47 0 -78 28t-42 65.5t-11 82.5q-54 -83 -144 -129.5t-194 -46.5q-172 0 -277.5 99t-105.5 294zM309 1468v7h133l197 -297h-102 z" />
<glyph unicode="&#xfa;" horiz-adv-x="1265" d="M160 373v674h104v-644q0 -166 76.5 -247.5t218.5 -81.5q138 0 230 94t92 235v644h104v-906q0 -67 55 -67q48 0 103 32v-88q-56 -38 -131 -38q-47 0 -78 28t-42 65.5t-11 82.5q-54 -83 -144 -129.5t-194 -46.5q-172 0 -277.5 99t-105.5 294zM526 1178l197 297h133v-7 l-227 -290h-103z" />
<glyph unicode="&#xfb;" horiz-adv-x="1265" d="M160 373v674h104v-644q0 -166 76.5 -247.5t218.5 -81.5q138 0 230 94t92 235v644h104v-906q0 -67 55 -67q48 0 103 32v-88q-56 -38 -131 -38q-47 0 -78 28t-42 65.5t-11 82.5q-54 -83 -144 -129.5t-194 -46.5q-172 0 -277.5 99t-105.5 294zM240 1178l274 297h119 l274 -297h-123l-211 198l-211 -198h-122z" />
<glyph unicode="&#xfc;" horiz-adv-x="1265" d="M160 373v674h104v-644q0 -166 76.5 -247.5t218.5 -81.5q138 0 230 94t92 235v644h104v-906q0 -67 55 -67q48 0 103 32v-88q-56 -38 -131 -38q-47 0 -78 28t-42 65.5t-11 82.5q-54 -83 -144 -129.5t-194 -46.5q-172 0 -277.5 99t-105.5 294zM319 1333v142h134v-142h-134z M680 1333v142h133v-142h-133z" />
<glyph unicode="&#xfd;" horiz-adv-x="1048" d="M25 1047h112l357 -891h8l358 891h103l-414 -1020q-10 -24 -28 -70.5t-27.5 -70t-26 -62t-29 -58.5t-30.5 -48t-36 -42.5t-41 -29.5t-49.5 -21t-56.5 -6q-64 0 -129 29v94q70 -29 111 -29q32 0 59 12.5t45 30.5t35 46t26.5 50t21.5 51q3 9 5 13l41 100zM453 1178l196 297 h133v-7l-227 -290h-102z" />
<glyph unicode="&#xfe;" horiz-adv-x="1193" d="M170 -371v1846h102v-572q115 164 336 164q88 0 162 -32.5t131.5 -97.5t90 -173t32.5 -250v-22q0 -240 -118.5 -376t-297.5 -136q-109 0 -195.5 43.5t-138.5 121.5v-516h-104zM272 496q0 -210 91.5 -316t234.5 -106q142 0 232 106.5t90 315.5v22q0 124 -25 214t-70 141.5 t-101 75.5t-126 24t-126 -23t-102.5 -73t-72 -141t-25.5 -216v-24z" />
<glyph unicode="&#xff;" horiz-adv-x="1048" d="M25 1047h112l357 -891h8l358 891h103l-414 -1020q-10 -24 -28 -70.5t-27.5 -70t-26 -62t-29 -58.5t-30.5 -48t-36 -42.5t-41 -29.5t-49.5 -21t-56.5 -6q-64 0 -129 29v94q70 -29 111 -29q32 0 59 12.5t45 30.5t35 46t26.5 50t21.5 51q3 9 5 13l41 100zM254 1333v142h133 v-142h-133zM614 1333v142h134v-142h-134z" />
<glyph unicode="&#x152;" horiz-adv-x="2113" d="M125 676v53q0 164 28.5 288t76 200.5t119 124t148.5 65.5t173 18q304 0 434 -200v180h868l-20 -98h-738v-541h654v-98h-654v-570h756l23 -98h-889v178q-70 -108 -179.5 -153t-254.5 -45q-96 0 -173 18t-148.5 65.5t-119 124t-76 200.5t-28.5 288zM236 651 q0 -136 22.5 -238t60.5 -165t95 -102t118 -53.5t138 -14.5t138 14.5t118 53.5t95 102t60.5 165t22.5 238v103q0 136 -22.5 238t-60.5 165t-95 102t-118 53.5t-138 14.5t-138 -14.5t-118 -53.5t-95 -102t-60.5 -165t-22.5 -238v-103z" />
<glyph unicode="&#x153;" horiz-adv-x="1910" d="M106 508v31q0 248 122.5 388t320.5 140q131 0 232.5 -65t156.5 -187q52 122 152 187t233 65q178 0 294 -113t116 -311v-131h-742v-29q3 -199 95.5 -304t238.5 -105q131 0 218 80t87 233h103q0 -190 -116 -298.5t-292 -108.5q-133 0 -233 64t-154 185 q-55 -121 -156.5 -185t-232.5 -64q-198 0 -320.5 140t-122.5 388zM211 496q0 -205 94.5 -313.5t243.5 -108.5t243.5 108.5t94.5 313.5v55q0 205 -94.5 313.5t-243.5 108.5t-243.5 -108.5t-94.5 -313.5v-55zM993 606h637v37q0 160 -87 245t-220 85q-137 0 -227.5 -94.5 t-102.5 -272.5z" />
<glyph unicode="&#x178;" horiz-adv-x="1171" d="M-10 1405h129l432 -748h6l438 748h113l-504 -860v-545h-110v545zM309 1536v141h133v-141h-133zM670 1536v141h133v-141h-133z" />
<glyph unicode="&#x2c6;" horiz-adv-x="1097" d="M188 1178l275 297h119l274 -297h-123l-211 198l-211 -198h-123z" />
<glyph unicode="&#x2dc;" horiz-adv-x="745" d="M-2 1298q0 27 10.5 54.5t32.5 54t64.5 43t99.5 16.5q68 0 178.5 -32.5t163.5 -32.5q52 0 79.5 15t37.5 50h75q0 -27 -10 -54.5t-32 -54t-65 -43t-100 -16.5q-68 0 -178.5 33t-163.5 33q-51 0 -78.5 -15.5t-37.5 -50.5h-76z" />
<glyph unicode="&#x2000;" horiz-adv-x="943" />
<glyph unicode="&#x2001;" horiz-adv-x="1886" />
<glyph unicode="&#x2002;" horiz-adv-x="943" />
<glyph unicode="&#x2003;" horiz-adv-x="1886" />
<glyph unicode="&#x2004;" horiz-adv-x="628" />
<glyph unicode="&#x2005;" horiz-adv-x="471" />
<glyph unicode="&#x2006;" horiz-adv-x="314" />
<glyph unicode="&#x2007;" horiz-adv-x="314" />
<glyph unicode="&#x2008;" horiz-adv-x="235" />
<glyph unicode="&#x2009;" horiz-adv-x="377" />
<glyph unicode="&#x200a;" horiz-adv-x="104" />
<glyph unicode="&#x2010;" horiz-adv-x="800" d="M141 485v127h518v-127h-518z" />
<glyph unicode="&#x2011;" horiz-adv-x="800" d="M141 485v127h518v-127h-518z" />
<glyph unicode="&#x2012;" horiz-adv-x="800" d="M141 485v127h518v-127h-518z" />
<glyph unicode="&#x2013;" horiz-adv-x="1306" d="M141 489v119h1024v-119h-1024z" />
<glyph unicode="&#x2014;" horiz-adv-x="2166" d="M147 489v117h1864v-117h-1864z" />
<glyph unicode="&#x2018;" horiz-adv-x="458" d="M125 1057v119l61 229h70l-47 -207h49v-141h-133z" />
<glyph unicode="&#x2019;" horiz-adv-x="448" d="M125 1264v141h133v-119l-61 -229h-70l47 207h-49z" />
<glyph unicode="&#x201a;" horiz-adv-x="487" d="M141 0v141h133v-118l-61 -230h-70l47 207h-49z" />
<glyph unicode="&#x201c;" horiz-adv-x="749" d="M125 1057v119l61 229h70l-47 -207h49v-141h-133zM328 1057v119l61 229h70l-47 -207h49v-141h-133z" />
<glyph unicode="&#x201d;" horiz-adv-x="739" d="M125 1264v141h133v-119l-61 -229h-70l47 207h-49zM328 1264v141h133v-119l-62 -229h-69l47 207h-49z" />
<glyph unicode="&#x201e;" horiz-adv-x="778" d="M141 0v141h133v-118l-61 -230h-70l47 207h-49zM344 0v141h133v-118l-61 -230h-70l47 207h-49z" />
<glyph unicode="&#x2022;" horiz-adv-x="1228" d="M307 705q0 120 84 204t203 84q120 0 205.5 -84t85.5 -204q0 -119 -85.5 -204t-205.5 -85q-118 0 -202.5 85t-84.5 204z" />
<glyph unicode="&#x2026;" horiz-adv-x="1505" d="M141 0v141h133v-141h-133zM578 0v141h133v-141h-133zM1012 0v141h133v-141h-133z" />
<glyph unicode="&#x202f;" horiz-adv-x="377" />
<glyph unicode="&#x2039;" horiz-adv-x="569" d="M100 690l252 357h84l-198 -357l198 -356h-84z" />
<glyph unicode="&#x203a;" horiz-adv-x="569" d="M115 334l198 356l-198 357h84l252 -357l-252 -356h-84z" />
<glyph unicode="&#x205f;" horiz-adv-x="471" />
<glyph unicode="&#x20ac;" horiz-adv-x="1150" d="M61 506v98h195q-4 62 -4 98q0 57 4 86h-195v99h209q53 239 229 388.5t433 149.5q68 0 117 -8v-102q-55 12 -117 12q-214 0 -358 -121t-191 -319h459v-99h-475q-5 -36 -5 -88q0 -57 5 -96h475v-98h-457q51 -196 194 -314t353 -118q55 0 117 10v-94q-65 -10 -117 -10 q-256 0 -430 145t-228 381h-213z" />
<glyph unicode="&#x2122;" horiz-adv-x="1837" d="M94 1327v78h613v-78h-263v-735h-86v735h-264zM748 592v813h116l301 -696l308 696h114v-813h-88v692q-52 -118 -158.5 -353t-152.5 -339h-62l-305 684v-684h-73z" />
<glyph unicode="&#x25fc;" horiz-adv-x="1044" d="M0 0v1044h1044v-1044h-1044z" />
</font>
</defs>
</svg>
